<svg xmlns="http://www.w3.org/2000/svg" viewBox="0 0 24 24" fill="none" stroke="currentColor" stroke-width="2" stroke-linecap="round" stroke-linejoin="round">
  <path d="M18 41.578c0 .89-.477 1.422-1.152 1.422-.239 0-.504-.066-.785-.207l-10.899-5.45C4.524 37.02 4 36.125 4 35.297V11.176C4 10.285 4.477 9.75 5.154 9.75c.239 0 .504.065.785.207l10.899 5.45C17.476 15.73 18 16.622 18 17.45v24.128z"></path>
  <path d="M34 41.578c0 .89-.477 1.422-1.152 1.422-.239 0-.504-.066-.785-.207l-10.899-5.45C20.524 37.02 20 36.125 20 35.297V11.176c0-.891.477-1.426 1.154-1.426.239 0 .504.065.785.207l10.899 5.45C33.476 15.73 34 16.622 34 17.45v24.128z"></path>
  <path d="M50 41.578c0 .89-.477 1.422-1.152 1.422-.239 0-.504-.066-.785-.207l-10.899-5.45C36.524 37.02 36 36.125 36 35.297V11.176c0-.891.477-1.426 1.154-1.426.239 0 .504.065.785.207l10.899 5.45C49.476 15.73 50 16.622 50 17.45v24.128z"></path>
</svg>